<svg width="20" height="20" viewBox="0 0 20 20" fill="none" xmlns="http://www.w3.org/2000/svg">
<path fill-rule="evenodd" clip-rule="evenodd" d="M9.99989 1.04166C8.28703 1.04166 6.64433 1.72209 5.43316 2.93327C4.22199 4.14444 3.54156 5.78714 3.54156 7.5V8.08666C3.54151 8.66741 3.36956 9.23514 3.04739 9.71833L2.09156 11.1542C0.97989 12.8208 1.82822 15.0858 3.76072 15.6125C4.38989 15.7842 5.02489 15.9292 5.66406 16.0483L5.66572 16.0525C6.30572 17.7625 8.01822 18.9583 9.99989 18.9583C11.9816 18.9583 13.6941 17.7625 14.3349 16.0525L14.3366 16.0483C14.9767 15.9292 15.6117 15.7838 16.2399 15.6125C18.1724 15.0858 19.0207 12.8208 17.9091 11.1542L16.9524 9.71833C16.6302 9.23514 16.4583 8.66741 16.4582 8.08666V7.5C16.4582 5.78714 15.7778 4.14444 14.5666 2.93327C13.3554 1.72209 11.7127 1.04166 9.99989 1.04166ZM12.8132 16.2808C10.944 16.5042 9.05491 16.5042 7.18572 16.2808C7.77822 17.1317 8.80906 17.7083 9.99989 17.7083C11.1907 17.7083 12.2207 17.1317 12.8132 16.2808ZM4.79156 7.5C4.79156 6.11866 5.34029 4.7939 6.31704 3.81715C7.29379 2.8404 8.61855 2.29166 9.99989 2.29166C11.3812 2.29166 12.706 2.8404 13.6827 3.81715C14.6595 4.7939 15.2082 6.11866 15.2082 7.5V8.08666C15.2082 8.91416 15.4532 9.72333 15.9124 10.4117L16.8691 11.8475C17.0173 12.0695 17.1106 12.3236 17.1413 12.5888C17.172 12.8539 17.1392 13.1226 17.0456 13.3726C16.9519 13.6226 16.8002 13.8467 16.6029 14.0265C16.4056 14.2063 16.1683 14.3366 15.9107 14.4067C12.0406 15.4621 7.95839 15.4621 4.08822 14.4067C3.83086 14.3364 3.59387 14.2061 3.39675 14.0263C3.19964 13.8465 3.04805 13.6225 2.95447 13.3727C2.86089 13.1229 2.828 12.8544 2.85849 12.5894C2.88899 12.3244 2.98201 12.0704 3.12989 11.8483L4.08822 10.4117C4.54701 9.72307 4.79173 8.91409 4.79156 8.08666V7.5Z" fill="#0D062D"/>
</svg>
