<svg width="30" height="30" viewBox="0 0 30 30" fill="none" xmlns="http://www.w3.org/2000/svg">
<rect width="30" height="30" fill="#F5F5F5"/>
<rect y="-3.05176e-05" width="30" height="30" rx="15" fill="#34CAA5"/>
<g clip-path="url(#clip0_0_1)">
<path d="M15 19.2187C17.33 19.2187 19.2188 17.3299 19.2188 15C19.2188 12.67 17.33 10.7812 15 10.7812C12.67 10.7812 10.7812 12.67 10.7812 15C10.7812 17.3299 12.67 19.2187 15 19.2187Z" fill="white"/>
<path d="M14.9998 9.09342C14.5334 9.09342 14.1561 8.71561 14.1561 8.24967V7.40622C14.1561 6.94028 14.5334 6.56247 14.9998 6.56247C15.4662 6.56247 15.8436 6.94028 15.8436 7.40622V8.24967C15.8436 8.71561 15.4662 9.09342 14.9998 9.09342Z" fill="white"/>
<path d="M19.7734 11.0705C19.5575 11.0705 19.3416 10.9881 19.1768 10.8233C18.8472 10.4938 18.8472 9.95958 19.1768 9.63009L19.7734 9.03363C20.103 8.70424 20.6369 8.70414 20.9665 9.03373C21.2961 9.36322 21.2961 9.89745 20.9665 10.2269L20.3699 10.8234C20.2051 10.9881 19.9893 11.0705 19.7734 11.0705Z" fill="white"/>
<path d="M22.5937 15.8437H21.75C21.2836 15.8437 20.9062 15.4659 20.9062 15C20.9062 14.534 21.2836 14.1562 21.75 14.1562H22.5937C23.0601 14.1562 23.4375 14.534 23.4375 15C23.4375 15.4659 23.0601 15.8437 22.5937 15.8437Z" fill="white"/>
<path d="M20.3699 21.2133C20.1541 21.2133 19.9382 21.131 19.7734 20.9662L19.1768 20.3698C18.8472 20.0403 18.8472 19.5061 19.1768 19.1766C19.5064 18.847 20.0403 18.8469 20.3699 19.1765L20.9665 19.7729C21.2961 20.1024 21.2961 20.6366 20.9665 20.9661C20.8017 21.1309 20.5858 21.2133 20.3699 21.2133Z" fill="white"/>
<path d="M14.9998 23.4374C14.5334 23.4374 14.1561 23.0596 14.1561 22.5937V21.7502C14.1561 21.2843 14.5334 20.9064 14.9998 20.9064C15.4662 20.9064 15.8436 21.2843 15.8436 21.7502V22.5937C15.8436 23.0596 15.4662 23.4374 14.9998 23.4374Z" fill="white"/>
<path d="M9.63025 21.2133C9.41437 21.2133 9.19849 21.131 9.03369 20.9662C8.7041 20.6367 8.7041 20.1024 9.03369 19.7729L9.63025 19.1765C9.95984 18.8471 10.4938 18.847 10.8234 19.1766C11.153 19.5061 11.153 20.0403 10.8234 20.3698L10.2268 20.9663C10.062 21.131 9.84613 21.2133 9.63025 21.2133Z" fill="white"/>
<path d="M8.25 15.8437H7.40625C6.93988 15.8437 6.5625 15.4659 6.5625 15C6.5625 14.534 6.93988 14.1562 7.40625 14.1562H8.25C8.71637 14.1562 9.09375 14.534 9.09375 15C9.09375 15.4659 8.71637 15.8437 8.25 15.8437Z" fill="white"/>
<path d="M10.2268 11.0706C10.0109 11.0706 9.79504 10.9883 9.63025 10.8235L9.03369 10.227C8.7041 9.89752 8.7041 9.36329 9.03369 9.0338C9.36328 8.70421 9.89722 8.70411 10.2268 9.0337L10.8234 9.63016C11.153 9.95965 11.153 10.4939 10.8234 10.8234C10.6586 10.9882 10.4427 11.0706 10.2268 11.0706Z" fill="white"/>
</g>
<defs>
<clipPath id="clip0_0_1">
<rect width="16.875" height="16.875" fill="white" transform="translate(6.5625 6.56247)"/>
</clipPath>
</defs>
</svg>
