<svg width="18" height="18" viewBox="0 0 18 18" fill="none" xmlns="http://www.w3.org/2000/svg">
<path d="M1 8.79487C1 5.70071 1 4.15322 1.9376 3.1924C2.8744 2.23075 4.3832 2.23075 7.4 2.23075H10.6C13.6168 2.23075 15.1256 2.23075 16.0624 3.1924C17 4.15322 17 5.70071 17 8.79487V10.4359C17 13.5301 17 15.0775 16.0624 16.0384C15.1256 17 13.6168 17 10.6 17H7.4C4.3832 17 2.8744 17 1.9376 16.0384C1 15.0775 1 13.5301 1 10.4359V8.79487Z" stroke="black" stroke-width="1.37144"/>
<path d="M4.99998 2.23077V1M13 2.23077V1M1.39998 6.33334H16.6" stroke="black" stroke-width="1.37144" stroke-linecap="round"/>
<path d="M13.8003 12.8974C13.8003 13.115 13.716 13.3237 13.566 13.4776C13.416 13.6315 13.2125 13.7179 13.0003 13.7179C12.7882 13.7179 12.5847 13.6315 12.4346 13.4776C12.2846 13.3237 12.2003 13.115 12.2003 12.8974C12.2003 12.6798 12.2846 12.4711 12.4346 12.3172C12.5847 12.1633 12.7882 12.0769 13.0003 12.0769C13.2125 12.0769 13.416 12.1633 13.566 12.3172C13.716 12.4711 13.8003 12.6798 13.8003 12.8974ZM13.8003 9.61534C13.8003 9.83296 13.716 10.0417 13.566 10.1955C13.416 10.3494 13.2125 10.4359 13.0003 10.4359C12.7882 10.4359 12.5847 10.3494 12.4346 10.1955C12.2846 10.0417 12.2003 9.83296 12.2003 9.61534C12.2003 9.39773 12.2846 9.18903 12.4346 9.03515C12.5847 8.88127 12.7882 8.79483 13.0003 8.79483C13.2125 8.79483 13.416 8.88127 13.566 9.03515C13.716 9.18903 13.8003 9.39773 13.8003 9.61534ZM9.80033 12.8974C9.80033 13.115 9.71605 13.3237 9.56602 13.4776C9.41599 13.6315 9.21251 13.7179 9.00033 13.7179C8.78816 13.7179 8.58468 13.6315 8.43465 13.4776C8.28462 13.3237 8.20033 13.115 8.20033 12.8974C8.20033 12.6798 8.28462 12.4711 8.43465 12.3172C8.58468 12.1633 8.78816 12.0769 9.00033 12.0769C9.21251 12.0769 9.41599 12.1633 9.56602 12.3172C9.71605 12.4711 9.80033 12.6798 9.80033 12.8974ZM9.80033 9.61534C9.80033 9.83296 9.71605 10.0417 9.56602 10.1955C9.41599 10.3494 9.21251 10.4359 9.00033 10.4359C8.78816 10.4359 8.58468 10.3494 8.43465 10.1955C8.28462 10.0417 8.20033 9.83296 8.20033 9.61534C8.20033 9.39773 8.28462 9.18903 8.43465 9.03515C8.58468 8.88127 8.78816 8.79483 9.00033 8.79483C9.21251 8.79483 9.41599 8.88127 9.56602 9.03515C9.71605 9.18903 9.80033 9.39773 9.80033 9.61534ZM5.80033 12.8974C5.80033 13.115 5.71605 13.3237 5.56602 13.4776C5.41599 13.6315 5.21251 13.7179 5.00033 13.7179C4.78816 13.7179 4.58468 13.6315 4.43465 13.4776C4.28462 13.3237 4.20033 13.115 4.20033 12.8974C4.20033 12.6798 4.28462 12.4711 4.43465 12.3172C4.58468 12.1633 4.78816 12.0769 5.00033 12.0769C5.21251 12.0769 5.41599 12.1633 5.56602 12.3172C5.71605 12.4711 5.80033 12.6798 5.80033 12.8974ZM5.80033 9.61534C5.80033 9.83296 5.71605 10.0417 5.56602 10.1955C5.41599 10.3494 5.21251 10.4359 5.00033 10.4359C4.78816 10.4359 4.58468 10.3494 4.43465 10.1955C4.28462 10.0417 4.20033 9.83296 4.20033 9.61534C4.20033 9.39773 4.28462 9.18903 4.43465 9.03515C4.58468 8.88127 4.78816 8.79483 5.00033 8.79483C5.21251 8.79483 5.41599 8.88127 5.56602 9.03515C5.71605 9.18903 5.80033 9.39773 5.80033 9.61534Z" fill="black"/>
</svg>
