<svg width="24" height="24" viewBox="0 0 24 24" fill="none" xmlns="http://www.w3.org/2000/svg">
<rect width="24" height="24" fill="#F5F5F5"/>
<path d="M14.66 20.01L13.14 21.53C12.52 22.15 11.5 22.15 10.88 21.53L9.35999 20.01C9.09999 19.75 8.59001 19.54 8.23001 19.54H6.07999C5.19999 19.54 4.48001 18.8199 4.48001 17.9399V15.79C4.48001 15.43 4.27001 14.92 4.01001 14.66L2.48999 13.14C1.86999 12.52 1.86999 11.5 2.48999 10.88L4.01001 9.35995C4.27001 9.09995 4.48001 8.58995 4.48001 8.22995V6.07993C4.48001 5.19993 5.19999 4.47995 6.07999 4.47995" stroke="#B2ABAB" stroke-width="1.5" stroke-linecap="round" stroke-linejoin="round"/>
<path d="M9.34 3.98999L10.86 2.46997C11.48 1.84997 12.5 1.84997 13.12 2.46997L14.64 3.98999C14.9 4.24999 15.41 4.45996 15.77 4.45996H17.92C18.8 4.45996 19.52 5.18006 19.52 6.06006V8.20996C19.52 8.56996 19.73 9.07997 19.99 9.33997L21.51 10.86C22.13 11.48 22.13 12.5 21.51 13.12L19.99 14.64C19.73 14.9 19.52 15.41 19.52 15.77V17.92C19.52 18.8 18.8 19.52 17.92 19.52" stroke="#B2ABAB" stroke-width="1.5" stroke-linecap="round" stroke-linejoin="round"/>
<path d="M9 15L15 8.99997" stroke="#B2ABAB" stroke-width="1.5" stroke-linecap="round" stroke-linejoin="round"/>
<path d="M14.4945 14.5H14.5035" stroke="#B2ABAB" stroke-width="2" stroke-linecap="round" stroke-linejoin="round"/>
<path d="M9.49451 9.49997H9.50349" stroke="#B2ABAB" stroke-width="2" stroke-linecap="round" stroke-linejoin="round"/>
</svg>
