<svg width="16" height="16" viewBox="0 0 16 16" fill="none" xmlns="http://www.w3.org/2000/svg">
<path d="M5.99984 11.8334C5.93317 11.8334 5.87317 11.82 5.8065 11.7934C5.61984 11.72 5.49984 11.5334 5.49984 11.3334V7.33337C5.49984 7.06004 5.7265 6.83337 5.99984 6.83337C6.27317 6.83337 6.49984 7.06004 6.49984 7.33337V10.1267L6.97984 9.64671C7.17317 9.45337 7.49317 9.45337 7.6865 9.64671C7.87984 9.84004 7.87984 10.16 7.6865 10.3534L6.35317 11.6867C6.25984 11.78 6.1265 11.8334 5.99984 11.8334Z" fill="#292D32"/>
<path d="M5.9998 11.8333C5.87313 11.8333 5.74647 11.7867 5.64647 11.6867L4.31313 10.3533C4.1198 10.16 4.1198 9.84 4.31313 9.64667C4.50646 9.45333 4.82646 9.45333 5.0198 9.64667L6.35313 10.98C6.54646 11.1733 6.54646 11.4933 6.35313 11.6867C6.25313 11.7867 6.12646 11.8333 5.9998 11.8333Z" fill="#292D32"/>
<path d="M9.99984 15.1667H5.99984C2.37984 15.1667 0.83317 13.62 0.83317 10V6.00004C0.83317 2.38004 2.37984 0.833374 5.99984 0.833374H9.33317C9.6065 0.833374 9.83317 1.06004 9.83317 1.33337C9.83317 1.60671 9.6065 1.83337 9.33317 1.83337H5.99984C2.9265 1.83337 1.83317 2.92671 1.83317 6.00004V10C1.83317 13.0734 2.9265 14.1667 5.99984 14.1667H9.99984C13.0732 14.1667 14.1665 13.0734 14.1665 10V6.66671C14.1665 6.39337 14.3932 6.16671 14.6665 6.16671C14.9398 6.16671 15.1665 6.39337 15.1665 6.66671V10C15.1665 13.62 13.6198 15.1667 9.99984 15.1667Z" fill="#292D32"/>
<path d="M14.6665 7.1667H11.9998C9.71984 7.1667 8.83317 6.28003 8.83317 4.00003V1.33337C8.83317 1.13337 8.95317 0.9467 9.13984 0.873366C9.3265 0.793366 9.53984 0.840033 9.6865 0.980033L15.0198 6.31337C15.1598 6.45337 15.2065 6.67337 15.1265 6.86003C15.0465 7.0467 14.8665 7.1667 14.6665 7.1667ZM9.83317 2.54003V4.00003C9.83317 5.72003 10.2798 6.1667 11.9998 6.1667H13.4598L9.83317 2.54003Z" fill="#292D32"/>
</svg>
