<svg width="40" height="40" viewBox="0 0 40 40" fill="none" xmlns="http://www.w3.org/2000/svg">
<circle cx="20" cy="20" r="19.6429" stroke="#E6E6E6" stroke-width="0.714286"/>
<path opacity="0.4" d="M27.35 13.66L21.06 10.27C20.4 9.91 19.6 9.91 18.93 10.27L12.64 13.66C12.18 13.91 11.9 14.4 11.9 14.94C11.9 15.48 12.18 15.97 12.64 16.22L18.93 19.61C19.26 19.79 19.63 19.88 19.99 19.88C20.35 19.88 20.72 19.79 21.05 19.61L27.34 16.22C27.8 15.97 28.08 15.48 28.08 14.94C28.1 14.4 27.81 13.91 27.35 13.66Z" fill="#34CAA5"/>
<path opacity="0.4" d="M17.9 20.79L12.05 17.86C11.6 17.63 11.08 17.66 10.65 17.92C10.22 18.18 9.97 18.64 9.97 19.14V24.67C9.97 25.63 10.5 26.49 11.36 26.92L17.21 29.8401C17.41 29.9401 17.63 29.99 17.85 29.99C18.11 29.99 18.37 29.92 18.6 29.77C19.03 29.51 19.28 29.05 19.28 28.55V23.02C19.29 22.08 18.76 21.22 17.9 20.79Z" fill="#34CAA5"/>
<path opacity="0.4" d="M30.03 19.15V23.74C30.02 23.73 30.01 23.71 30 23.7C30 23.69 29.99 23.68 29.98 23.67C29.94 23.61 29.89 23.55 29.84 23.5C29.83 23.49 29.82 23.47 29.81 23.46C29 22.56 27.81 22 26.5 22C25.24 22 24.09 22.52 23.27 23.36C22.48 24.17 22 25.28 22 26.5C22 27.34 22.24 28.14 22.65 28.82C22.82 29.11 23.03 29.37 23.26 29.61L22.79 29.85C22.59 29.95 22.37 30 22.15 30C21.89 30 21.63 29.93 21.39 29.78C20.97 29.52 20.71 29.06 20.71 28.56V23.04C20.71 22.08 21.24 21.22 22.1 20.79L27.95 17.87C28.4 17.64 28.92 17.66 29.35 17.93C29.77 18.19 30.03 18.65 30.03 19.15Z" fill="#34CAA5"/>
<path d="M29.98 23.67C29.16 22.66 27.91 22.02 26.5 22.02C25.44 22.02 24.46 22.39 23.69 23.01C22.65 23.83 22 25.1 22 26.52C22 27.36 22.24 28.16 22.65 28.84C22.92 29.29 23.26 29.68 23.66 30H23.67C24.44 30.64 25.43 31.02 26.5 31.02C27.64 31.02 28.67 30.6 29.46 29.9C29.81 29.6 30.11 29.24 30.35 28.84C30.76 28.16 31 27.36 31 26.52C31 25.44 30.62 24.44 29.98 23.67ZM28.76 25.96L26.36 28.18C26.22 28.31 26.03 28.38 25.85 28.38C25.66 28.38 25.47 28.31 25.32 28.16L24.21 27.05C23.92 26.76 23.92 26.28 24.21 25.99C24.5 25.7 24.98 25.7 25.27 25.99L25.87 26.59L27.74 24.86C28.04 24.58 28.52 24.6 28.8 24.9C29.09 25.21 29.07 25.68 28.76 25.96Z" fill="#34CAA5"/>
</svg>
