<svg width="24" height="24" viewBox="0 0 24 24" fill="none" xmlns="http://www.w3.org/2000/svg">
<path d="M10.06 5.32771V5.33V7.23C10.06 8.23613 9.79557 8.92232 9.35895 9.35895C8.92232 9.79557 8.23613 10.06 7.23 10.06H5.33C4.32387 10.06 3.63768 9.79557 3.20105 9.35895C2.76443 8.92232 2.5 8.23613 2.5 7.23V5.33C2.5 4.32387 2.76441 3.63797 3.20191 3.20145C3.63959 2.76474 4.32828 2.5 5.34 2.5H7.24C8.24631 2.5 8.93213 2.76451 9.3673 3.20066C9.80228 3.63661 10.0646 4.322 10.06 5.32771Z" fill="white" stroke="#B2ABAB"/>
<path d="M16.77 2.5H18.67C19.6761 2.5 20.3623 2.76443 20.7989 3.20105C21.2356 3.63768 21.5 4.32387 21.5 5.33V7.23C21.5 8.23613 21.2356 8.92232 20.7989 9.35895C20.3623 9.79557 19.6761 10.06 18.67 10.06H16.77C15.7639 10.06 15.0777 9.79557 14.6411 9.35895C14.2044 8.92232 13.94 8.23613 13.94 7.23V5.33C13.94 4.32387 14.2044 3.63768 14.6411 3.20105C15.0777 2.76443 15.7639 2.5 16.77 2.5Z" fill="white" stroke="#B2ABAB"/>
<path d="M16.77 13.93H18.67C19.6761 13.93 20.3623 14.1944 20.7989 14.6311C21.2356 15.0677 21.5 15.7539 21.5 16.76V18.66C21.5 19.6661 21.2356 20.3523 20.7989 20.7889C20.3623 21.2256 19.6761 21.49 18.67 21.49H16.77C15.7639 21.49 15.0777 21.2256 14.6411 20.7889C14.2044 20.3523 13.94 19.6661 13.94 18.66V16.76C13.94 15.7539 14.2044 15.0677 14.6411 14.6311C15.0777 14.1944 15.7639 13.93 16.77 13.93Z" fill="white" stroke="#B2ABAB"/>
<path d="M10.06 16.7677V16.77V18.67C10.06 19.6761 9.79557 20.3623 9.35895 20.7989C8.92232 21.2356 8.23613 21.5 7.23 21.5H5.33C4.32387 21.5 3.63797 21.2356 3.20145 20.7981C2.76474 20.3604 2.5 19.6717 2.5 18.66V16.76C2.5 15.7539 2.76441 15.068 3.20191 14.6314C3.63959 14.1947 4.32828 13.93 5.34 13.93H7.24C8.24631 13.93 8.93184 14.1945 9.36691 14.6315C9.80196 15.0685 10.0646 15.7564 10.06 16.7677Z" fill="white" stroke="#B2ABAB"/>
</svg>
