<svg width="24" height="24" viewBox="0 0 24 24" fill="none" xmlns="http://www.w3.org/2000/svg">
<path d="M3.17001 7.44L12 12.55L20.77 7.46997" stroke="#B7B0B0" stroke-width="1.5" stroke-linecap="round" stroke-linejoin="round"/>
<path d="M12 21.61V12.54" stroke="#B7B0B0" stroke-width="1.5" stroke-linecap="round" stroke-linejoin="round"/>
<path d="M2.39001 9.17001C2.39001 7.79001 3.38 6.11003 4.59 5.44003L9.92999 2.47C11.07 1.84 12.94 1.84 14.08 2.47L19.42 5.44003C20.63 6.11003 21.62 7.79001 21.62 9.17001V14.82C21.62 16.2 20.63 17.88 19.42 18.55L14.08 21.52C12.94 22.15 11.07 22.15 9.92999 21.52L4.59 18.55C3.38 17.88 2.39001 16.2 2.39001 14.82V14" stroke="#B7B0B0" stroke-width="1.5" stroke-linecap="round" stroke-linejoin="round"/>
<path d="M17 13.24V9.58002L10.93 6.07001L9.88 5.46997L7.51001 4.09998" stroke="#B7B0B0" stroke-width="1.5" stroke-linecap="round" stroke-linejoin="round"/>
</svg>
