<svg width="40" height="40" viewBox="0 0 40 40" fill="none" xmlns="http://www.w3.org/2000/svg">
<circle cx="20" cy="20" r="19.6429" stroke="#E6E6E6" stroke-width="0.714286"/>
<path fill-rule="evenodd" clip-rule="evenodd" d="M15.5782 10.9119C12.8091 11.5544 10.75 14.0334 10.75 17C10.75 17.4142 10.4142 17.75 10 17.75C9.58579 17.75 9.25 17.4142 9.25 17C9.25 12.7158 12.7158 9.25 17 9.25C17.2702 9.25 17.5195 9.39534 17.6526 9.63047C17.7858 9.8656 17.7821 10.1542 17.6431 10.3859L16.5931 12.1359C16.38 12.4911 15.9193 12.6062 15.5641 12.3931C15.209 12.18 15.0938 11.7193 15.3069 11.3641L15.5782 10.9119ZM30 22.25C30.4142 22.25 30.75 22.5858 30.75 23C30.75 27.2842 27.2842 30.75 23 30.75C22.7298 30.75 22.4805 30.6047 22.3474 30.3695C22.2142 30.1344 22.2179 29.8458 22.3569 29.6141L23.4069 27.8641C23.62 27.5089 24.0807 27.3938 24.4359 27.6069C24.791 27.82 24.9062 28.2807 24.6931 28.6359L24.4218 29.0881C27.1909 28.4456 29.25 25.9666 29.25 23C29.25 22.5858 29.5858 22.25 30 22.25Z" fill="#34CAA5"/>
<path d="M24.4 16.21L20.64 14.18C20.24 13.97 19.77 13.97 19.37 14.18L15.61 16.21C15.34 16.36 15.17 16.65 15.17 16.98C15.17 17.31 15.34 17.6 15.61 17.75L19.37 19.78C19.57 19.89 19.79 19.94 20.01 19.94C20.23 19.94 20.45 19.89 20.65 19.78L24.41 17.75C24.68 17.6 24.85 17.31 24.85 16.98C24.84 16.65 24.67 16.36 24.4 16.21Z" fill="#34CAA5"/>
<path opacity="0.4" d="M18.74 20.47L15.24 18.72C14.97 18.59 14.66 18.6 14.4 18.76C14.14 18.92 13.99 19.19 13.99 19.49V22.8C13.99 23.37 14.31 23.89 14.82 24.14L18.32 25.89C18.44 25.95 18.57 25.98 18.71 25.98C18.87 25.98 19.02 25.94 19.16 25.85C19.42 25.69 19.57 25.42 19.57 25.12V21.81C19.57 21.24 19.26 20.73 18.74 20.47Z" fill="#34CAA5"/>
<path opacity="0.4" d="M25.59 18.76C25.33 18.6 25.02 18.59 24.75 18.72L21.25 20.47C20.74 20.73 20.42 21.24 20.42 21.81V25.12C20.42 25.42 20.57 25.69 20.83 25.85C20.97 25.94 21.12 25.98 21.28 25.98C21.41 25.98 21.54 25.95 21.67 25.89L25.17 24.14C25.68 23.88 26 23.37 26 22.8V19.49C26 19.19 25.85 18.92 25.59 18.76Z" fill="#34CAA5"/>
</svg>
